# xmcd
#
# Track frame offsets:
#	150
#	16229
#	31543
#	47210
#	60151
#	81521
#	99171
#	119859
#	134618
#	152710
#	170912
#	190205
#	211613
#	224304
#	239310
#	258136
#
# Disc length: 3662
#
# Revision: 2
# Processed by: cddbd v1.5.1PL0 Copyright (c) Steve Scherf et al.
# Submitted via: EasyCDDAExtractor 7.0.5.4
# Normalized: r1:DSETVAR1
#
DISCID=d70e4c10
DTITLE=Various Artist - 120 Soul Street
DYEAR=2004
DGENRE=blues
TTITLE0=Craig Wollard - Til The Day After
TTITLE1=Tyrone Davis - Back That Thang Up
TTITLE2=North Tower - Chasin' Dreams
TTITLE3=Rickey Godfrey Band - No One Loves You Better Than Me
TTITLE4=Wilson Pickett - Nine Times A Man
TTITLE5=Casey York w/ Main Event Band - One Step
TTITLE6=Rick Strickland - something Smooth
TTITLE7=Batson and Chase - TLC
TTITLE8=Roy Roberts - I Slipped
TTITLE9=Tim Cashion - Lovin' On Ocean Drive
TTITLE10=Still Cruzin' f/ John Goudy - Don't Let The Green Grass Fool Ya
TTITLE11=Main Event Band - Wrong When I'm Right
TTITLE12=Flashbacks - Mercy Mercy Mercy
TTITLE13=Goldrush Band - Summer Girl
TTITLE14=Johnny Cobb and Donna Vallance - Slowburn
TTITLE15=La Di Da
EXTD=
EXTT0=
EXTT1=
EXTT2=
EXTT3=
EXTT4=
EXTT5=
EXTT6=
EXTT7=
EXTT8=
EXTT9=
EXTT10=
EXTT11=
EXTT12=
EXTT13=
EXTT14=
EXTT15=
PLAYORDER=
